{
	"asset":{
		"generator":"Khronos glTF Blender I/O v3.5.30",
		"version":"2.0"
	},
	"scene":0,
	"scenes":[
		{
			"name":"Scene",
			"nodes":[
				0
			]
		}
	],
	"nodes":[
		{
			"mesh":0,
			"name":"Plane",
			"scale":[
				3.05881667137146,
				3.05881667137146,
				3.05881667137146
			]
		}
	],
	"materials":[
		{
			"doubleSided":true,
			"name":"Material.001",
			"pbrMetallicRoughness":{
				"baseColorFactor":[
					0.800000011920929,
					0.800000011920929,
					0.800000011920929,
					1
				],
				"metallicFactor":0,
				"roughnessFactor":0.5
			}
		}
	],
	"meshes":[
		{
			"name":"Plane",
			"primitives":[
				{
					"attributes":{
						"POSITION":0,
						"TEXCOORD_0":1,
						"NORMAL":2
					},
					"indices":3,
					"material":0
				}
			]
		}
	],
	"accessors":[
		{
			"bufferView":0,
			"componentType":5126,
			"count":40479,
			"max":[
				1.0000014305114746,
				1.0014283657073975,
				0.2673790752887726
			],
			"min":[
				-1.0028631687164307,
				-1.0000205039978027,
				-0.20863492786884308
			],
			"type":"VEC3"
		},
		{
			"bufferView":1,
			"componentType":5126,
			"count":40479,
			"type":"VEC2"
		},
		{
			"bufferView":2,
			"componentType":5126,
			"count":40479,
			"type":"VEC3"
		},
		{
			"bufferView":3,
			"componentType":5123,
			"count":64959,
			"type":"SCALAR"
		}
	],
	"bufferViews":[
		{
			"buffer":0,
			"byteLength":485748,
			"byteOffset":0,
			"target":34962
		},
		{
			"buffer":0,
			"byteLength":323832,
			"byteOffset":485748,
			"target":34962
		},
		{
			"buffer":0,
			"byteLength":485748,
			"byteOffset":809580,
			"target":34962
		},
		{
			"buffer":0,
			"byteLength":129918,
			"byteOffset":1295328,
			"target":34963
		}
	],
	"buffers":[
		{
			"byteLength":1425248,
			"uri":"data:application/octet-stream;base64,"
		}
	]
}
